<svg width="141" height="31" viewBox="0 0 141 31" fill="none" xmlns="http://www.w3.org/2000/svg">
<path d="M119.446 21.1903C119.159 21.1903 118.924 21.423 118.924 21.7131C118.924 22.0033 119.156 22.236 119.446 22.236C119.737 22.236 119.969 22.0033 119.969 21.7131C119.969 21.423 119.737 21.1903 119.446 21.1903Z" fill="#FFFDE9"/>
<path d="M44.0246 9.97382C42.3986 9.97382 40.9095 10.7047 39.7653 11.6956V6.42349H37.5043V22.2316H39.7653V21.3502C40.9095 22.3411 42.3986 23.02 44.0246 23.02C47.6242 23.02 50.5477 20.0965 50.5477 16.4969C50.5477 12.8973 47.6215 9.97382 44.0246 9.97382ZM43.9179 20.7589C41.5692 20.7589 39.6312 18.9714 39.6312 16.4996C39.6312 13.6911 42.1222 11.775 44.8787 12.3361C46.2528 12.6181 47.3778 13.6364 47.8213 14.9695C48.8122 17.9559 46.7647 20.7589 43.9179 20.7589Z" fill="#FFFDE9"/>
<path d="M80.8718 11.6955C79.7276 10.7046 78.2385 9.97373 76.6126 9.97373C73.013 9.97373 70.0895 12.8972 70.0895 16.4968C70.0895 20.0964 73.0157 23.0199 76.6126 23.0199C78.2385 23.0199 79.7276 22.341 80.8718 21.3501V22.2315H83.1329V6.4234H80.8718V11.6955ZM76.7166 20.7588C73.8752 20.7588 71.825 17.9585 72.8131 14.9721C73.2538 13.639 74.3789 12.618 75.753 12.336C78.5123 11.7694 81.0032 13.691 81.0032 16.4995C81.0032 18.9741 79.0652 20.7588 76.7166 20.7588Z" fill="#FFFDE9"/>
<path d="M102.549 8.55579H100.288V10.6909H99.0204V12.9027H100.288V22.2315H102.549V12.9027H103.811V10.6909H102.549V8.55579Z" fill="#FFFDE9"/>
<path d="M54.2566 10.692H51.9956V22.2298H54.2566V10.692Z" fill="#FFFDE9"/>
<path d="M95.3113 11.6954C94.1671 10.7045 92.678 9.97363 91.052 9.97363C87.4551 9.97363 84.5289 12.8971 84.5289 16.4967C84.5289 20.0963 87.4524 23.0198 91.052 23.0198C92.678 23.0198 94.1671 22.3409 95.3113 21.35V22.2314H97.5723V10.6963H95.3113V11.6954ZM91.156 20.7587C88.3147 20.7587 86.2644 17.9584 87.2526 14.972C87.6933 13.6389 88.8183 12.6179 90.1925 12.336C92.9517 11.7693 95.4427 13.6909 95.4427 16.4994C95.4427 18.9767 93.5047 20.7587 91.156 20.7587Z" fill="#FFFDE9"/>
<path d="M115.039 11.6954C113.895 10.7045 112.406 9.97363 110.78 9.97363C107.183 9.97363 104.257 12.8971 104.257 16.4967C104.257 20.0963 107.18 23.0198 110.78 23.0198C112.406 23.0198 113.895 22.3409 115.039 21.35V22.2314H117.3V10.6963H115.039V11.6954ZM110.887 20.7587C108.045 20.7587 105.995 17.9584 106.983 14.972C107.424 13.6389 108.549 12.6179 109.923 12.336C112.682 11.7693 115.173 13.6909 115.173 16.4994C115.173 18.9767 113.235 20.7587 110.887 20.7587Z" fill="#FFFDE9"/>
<path d="M66.4321 11.6954C65.2879 10.7045 63.7988 9.97363 62.1729 9.97363C58.576 9.97363 55.6498 12.8971 55.6498 16.4967C55.6498 20.0963 58.5733 23.0198 62.1729 23.0198C63.7988 23.0198 65.2879 22.3409 66.4321 21.35V21.9632C66.4321 25.3739 64.0425 26.5373 61.8033 26.5373C61.1491 26.5373 60.5168 26.4031 59.9228 26.1376L58.9975 28.2673C59.8872 28.6642 60.8316 28.864 61.8033 28.864C65.7889 28.864 68.6932 26.0911 68.6932 21.9632V10.6963H66.4321V11.6954ZM62.2796 20.7587C59.4383 20.7587 57.388 17.9584 58.3762 14.972C58.8169 13.6389 59.9419 12.6179 61.3161 12.336C64.0753 11.7693 66.5663 13.6909 66.5663 16.4994C66.5663 18.974 64.6282 20.7587 62.2796 20.7587Z" fill="#FFFDE9"/>
<path d="M123.728 17.5155C124.231 17.5155 124.694 17.729 125.022 18.0684L125.764 17.3376C125.14 16.7135 124.226 16.374 123.246 16.541C122.085 16.7354 121.144 17.6578 120.927 18.8157C120.588 20.6333 121.981 22.2237 123.739 22.2237C124.527 22.2237 125.244 21.9034 125.761 21.3861L125.02 20.6552C124.606 21.0795 123.996 21.3067 123.347 21.1671C122.715 21.033 122.189 20.5567 121.998 19.9408C121.603 18.7008 122.534 17.51 123.728 17.51V17.5155Z" fill="#FFFDE9"/>
<path d="M128.753 16.4998C127.261 16.5464 126.019 17.7891 125.978 19.281C125.931 20.8933 127.234 22.2263 128.838 22.2263C130.442 22.2263 131.701 20.9398 131.701 19.3631C131.701 17.7864 130.368 16.4533 128.751 16.4998H128.753ZM128.37 21.1478C127.782 20.9973 127.305 20.5429 127.114 19.9653C126.698 18.7171 127.636 17.5099 128.838 17.5099C129.846 17.5099 130.661 18.353 130.661 19.3576C130.661 20.5155 129.583 21.4572 128.37 21.1451V21.1478Z" fill="#FFFDE9"/>
<path d="M138.049 16.5014C137.368 16.5014 136.757 16.8107 136.352 17.2952C135.944 16.8107 135.334 16.5014 134.655 16.5014C134.217 16.5014 133.774 16.6985 133.481 17.0215V16.7341H132.435V22.2197H133.481V18.7296C133.481 17.9522 134.006 17.5443 134.655 17.5443C135.304 17.5443 135.832 17.9878 135.832 18.7296V22.2197H136.878V18.7296C136.878 18.0754 137.401 17.5443 138.049 17.5443C138.827 17.5443 139.224 17.9713 139.224 18.7296V22.2197H140.269V18.7296C140.269 17.3171 139.273 16.4987 138.049 16.4987V16.5014Z" fill="#FFFDE9"/>
<path d="M23.4561 0C27.5167 0 30.8086 3.29187 30.8086 7.35254V23.4561C30.8086 27.5167 27.5167 30.8086 23.4561 30.8086H7.35254C3.29187 30.8086 0 27.5167 0 23.4561V7.35254C0 3.29187 3.29187 0 7.35254 0H23.4561ZM10.416 4.36816C8.79564 4.36816 7.25982 4.99775 6.09375 6.14453C4.92499 7.29413 4.27841 8.78332 4.27832 10.4229C4.27832 12.0625 4.85341 13.582 5.89355 14.707C6.95012 15.8512 8.41183 16.4804 10.0049 16.4805H12.9941V14.3398H10.418C9.37799 14.3397 8.40399 13.9321 7.67871 13.1904C6.95605 12.4513 6.55859 11.4713 6.55859 10.4229C6.55868 9.37458 6.95613 8.39154 7.67871 7.65527C8.40396 6.91383 9.37815 6.50598 10.418 6.50586C12.5668 6.50586 14.251 8.22555 14.251 10.4209V20.3818C14.251 21.9913 14.8939 23.5105 16.0654 24.6602C17.231 25.8039 18.766 26.435 20.3857 26.4355C22.0059 26.4354 23.5411 25.8068 24.707 24.6602C25.8758 23.5105 26.5224 22.0214 26.5225 20.3818C26.5225 18.7422 25.9474 17.22 24.9072 16.0977C23.8507 14.9535 22.3889 14.3243 20.7959 14.3242H17.8252V16.4648H20.3848C21.4249 16.4648 22.3996 16.8725 23.125 17.6143C23.8477 18.3506 24.2451 19.3334 24.2451 20.3818C24.2451 21.4302 23.8476 22.4131 23.125 23.1494C22.3996 23.8911 21.4248 24.2988 20.3848 24.2988C18.2362 24.2987 16.5529 22.5798 16.5527 20.3848V10.4229C16.5526 8.81346 15.9097 7.29412 14.7383 6.14453C13.5723 5.0004 12.0364 4.36825 10.416 4.36816Z" fill="#FFFDE9"/>
</svg>
